<?xml version="1.0" encoding="UTF-8" standalone="no"?><!DOCTYPE svg PUBLIC "-//W3C//DTD SVG 1.1//EN" "http://www.w3.org/Graphics/SVG/1.1/DTD/svg11.dtd"><svg width="100%" height="100%" viewBox="0 0 233 233" version="1.1" xmlns="http://www.w3.org/2000/svg" xmlns:xlink="http://www.w3.org/1999/xlink" xml:space="preserve" xmlns:serif="http://www.serif.com/" style="fill-rule:evenodd;clip-rule:evenodd;stroke-linejoin:round;stroke-miterlimit:1.41421;"><rect id="Artboard1" x="-136" y="-137" width="483" height="511" style="fill:none;"/><g><circle cx="117.5" cy="108.5" r="106.5" style="fill:#fb0;"/><g><path d="M192.5,70.003l1,97c-11.333,-7.652 -25.185,-12.238 -43,-12c-13.105,1.851 -22.948,10.511 -30,25l0,-105c10.268,-12.8 21.506,-20.018 34,-20c15.196,-0.129 28.089,4.41 38,15Z" style="fill:#fff;"/><path d="M42.5,70.003l-1,97c11.333,-7.652 25.185,-12.238 43,-12c13.105,1.851 22.948,10.511 30,25l0,-105c-10.268,-12.8 -21.506,-20.018 -34,-20c-15.196,-0.129 -28.089,4.41 -38,15Z" style="fill:#fff;"/></g></g></svg>