<?xml version="1.0" encoding="UTF-8" standalone="no"?><!DOCTYPE svg PUBLIC "-//W3C//DTD SVG 1.1//EN" "http://www.w3.org/Graphics/SVG/1.1/DTD/svg11.dtd"><svg width="100%" height="100%" viewBox="0 0 264 254" version="1.1" xmlns="http://www.w3.org/2000/svg" xmlns:xlink="http://www.w3.org/1999/xlink" xml:space="preserve" xmlns:serif="http://www.serif.com/" style="fill-rule:evenodd;clip-rule:evenodd;stroke-linejoin:round;stroke-miterlimit:1.41421;"><rect id="Artboard1" x="-110" y="-80" width="543" height="456" style="fill:none;"/><g><circle cx="132.5" cy="126.5" r="124.5" style="fill:#ffe8e8;"/><clipPath id="_clip1"><circle cx="132.5" cy="126.5" r="124.5"/></clipPath><g clip-path="url(#_clip1)"><path d="M191.564,-44.947l-121.468,56.579l109.436,234.947l121.468,-56.579l-109.436,-234.947Z" style="fill:#c8c8c8;fill-opacity:0.65098;"/></g><g><path d="M137.768,32c0,0 -1.38,9.3 -4,13c-2.833,4 -10.667,7.333 -13,11c-1.977,3.106 -2.167,7.667 -1,11c1.167,3.333 7.126,8.632 8,9c0.874,0.368 -2.365,-4.38 -2.756,-6.792c-0.459,-2.833 -1.411,-7.112 0,-10.208c1.46,-3.201 6.13,-5.833 8.756,-9c2.597,-3.132 6.333,-7 7,-10c0.618,-2.78 -3,-8 -3,-8Z" style="fill:#e91400;"/><path d="M145.768,49c-1.167,0.333 -9.667,5.167 -12,8c-1.954,2.372 -2,6.667 -2,9c0,1.794 1.197,3.393 2,4.998c0.833,1.666 3,3.335 3,5.002c0,1.667 -3.667,5 -3,5c0.667,0 5.833,-3.167 7,-5c1.074,-1.687 0.718,-4.133 0,-6c-0.833,-2.167 -5,-4.5 -5,-7c0,-2.5 3.333,-5.667 5,-8c1.513,-2.118 6.167,-6.333 5,-6Z" style="fill:#e90002;"/></g><g><path d="M91.157,161c-0.291,0 -0.57,0.118 -0.772,0.328c-0.203,0.209 -0.312,0.492 -0.303,0.783c0.192,5.744 1,32.071 -0.037,38.889c-0.463,3.038 -6.334,4 -7,6c-0.667,2 1.833,5.333 3,6c1.166,0.667 2.897,-0.997 4,-2c1.833,-1.667 6.508,-4.491 7,-8c1.045,-7.471 0.216,-35.302 0.033,-40.983c-0.018,-0.567 -0.482,-1.017 -1.049,-1.017c-1.296,0 -3.53,0 -4.872,0Z" style="fill:#e92700;"/><path d="M105.045,171c1.503,-0.371 7.333,-0.167 10,0c2.023,0.126 4.333,0.167 6,1c1.666,0.833 3.403,2.211 4,4c0.833,2.5 1.249,7.327 1,11c-0.272,3.991 0.666,11.667 0,14c-0.367,1.282 -3.167,0.667 -4,0c-0.834,-0.667 -0.337,-3.553 -1,-4c-0.553,-0.373 -5.075,3.333 -7.741,4c-2.667,0.667 -6.383,1.5 -8.259,0c-1.877,-1.5 -2.938,-6.667 -3,-9c-0.054,-2.008 1.287,-5.125 3,-6c1.679,-0.858 3.268,-1.528 5,-2c1.833,-0.5 4.5,-0.667 6,-1c1.029,-0.229 2.528,-0.057 3,-1c0.5,-1 0.956,-4 0,-5c-0.957,-1 -4.075,-1 -5.741,-1c-1.459,0 -2.81,0.843 -4.259,1c-1.544,0.167 -4.334,1 -5,0c-0.667,-1 -0.888,-5.535 1,-6Z" style="fill:#e92700;"/><clipPath id="_clip2"><path d="M105.045,171c1.503,-0.371 7.333,-0.167 10,0c2.023,0.126 4.333,0.167 6,1c1.666,0.833 3.403,2.211 4,4c0.833,2.5 1.249,7.327 1,11c-0.272,3.991 0.666,11.667 0,14c-0.367,1.282 -3.167,0.667 -4,0c-0.834,-0.667 -0.337,-3.553 -1,-4c-0.553,-0.373 -5.075,3.333 -7.741,4c-2.667,0.667 -6.383,1.5 -8.259,0c-1.877,-1.5 -2.938,-6.667 -3,-9c-0.054,-2.008 1.287,-5.125 3,-6c1.679,-0.858 3.268,-1.528 5,-2c1.833,-0.5 4.5,-0.667 6,-1c1.029,-0.229 2.528,-0.057 3,-1c0.5,-1 0.956,-4 0,-5c-0.957,-1 -4.075,-1 -5.741,-1c-1.459,0 -2.81,0.843 -4.259,1c-1.544,0.167 -4.334,1 -5,0c-0.667,-1 -0.888,-5.535 1,-6Z"/></clipPath><g clip-path="url(#_clip2)"><path d="M108.552,189.125c-0.833,1.333 -0.5,3.833 0,5c0.474,1.105 1.808,1.851 3,2c1.333,0.167 3.667,-0.333 5,-1c1.265,-0.632 2.667,-1.667 3,-3c0.333,-1.333 0,-4 -1,-5c-1,-1 -3.333,-1.333 -5,-1c-1.667,0.333 -4.167,1.667 -5,3Z" style="fill:#ffe8e8;"/></g><path d="M160.822,171c1.504,-0.371 7.334,-0.167 10,0c2.024,0.126 4.334,0.167 6,1c1.667,0.833 3.404,2.211 4,4c0.834,2.5 1.25,7.327 1,11c-0.271,3.991 0.667,11.667 0,14c-0.366,1.282 -3.166,0.667 -4,0c-0.833,-0.667 -0.336,-3.553 -1,-4c-0.553,-0.373 -5.074,3.333 -7.741,4c-2.666,0.667 -6.382,1.5 -8.259,0c-1.876,-1.5 -2.938,-6.667 -3,-9c-0.053,-2.008 1.288,-5.125 3,-6c1.679,-0.858 3.268,-1.528 5,-2c1.834,-0.5 4.5,-0.667 6,-1c1.029,-0.229 2.529,-0.057 3,-1c0.5,-1 0.957,-4 0,-5c-0.957,-1 -4.074,-1 -5.741,-1c-1.458,0 -2.809,0.843 -4.259,1c-1.543,0.167 -4.333,1 -5,0c-0.666,-1 -0.887,-5.535 1,-6Z" style="fill:#e92700;"/><clipPath id="_clip3"><path d="M160.822,171c1.504,-0.371 7.334,-0.167 10,0c2.024,0.126 4.334,0.167 6,1c1.667,0.833 3.404,2.211 4,4c0.834,2.5 1.25,7.327 1,11c-0.271,3.991 0.667,11.667 0,14c-0.366,1.282 -3.166,0.667 -4,0c-0.833,-0.667 -0.336,-3.553 -1,-4c-0.553,-0.373 -5.074,3.333 -7.741,4c-2.666,0.667 -6.382,1.5 -8.259,0c-1.876,-1.5 -2.938,-6.667 -3,-9c-0.053,-2.008 1.288,-5.125 3,-6c1.679,-0.858 3.268,-1.528 5,-2c1.834,-0.5 4.5,-0.667 6,-1c1.029,-0.229 2.529,-0.057 3,-1c0.5,-1 0.957,-4 0,-5c-0.957,-1 -4.074,-1 -5.741,-1c-1.458,0 -2.809,0.843 -4.259,1c-1.543,0.167 -4.333,1 -5,0c-0.666,-1 -0.887,-5.535 1,-6Z"/></clipPath><g clip-path="url(#_clip3)"><path d="M164.33,189.125c-0.834,1.333 -0.5,3.833 0,5c0.473,1.105 1.807,1.851 3,2c1.333,0.167 3.666,-0.333 5,-1c1.265,-0.632 2.666,-1.667 3,-3c0.333,-1.333 0,-4 -1,-5c-1,-1 -3.334,-1.333 -5,-1c-1.667,0.333 -4.167,1.667 -5,3Z" style="fill:#ffe8e8;"/></g><path d="M129.045,171c0,0 4.937,-3.079 7,-1c1.606,1.619 5.059,25.994 7,26c2.271,0.007 5.353,-23.794 6,-26c0.517,-1.765 5.852,-0.813 6,0c0.363,1.994 -4.167,25 -7,30c-1.644,2.9 -8.174,2.788 -10,0c-3.167,-4.833 -9,-29 -9,-29Z" style="fill:#e92700;"/></g><g><path d="M103.266,89c-1.777,0 -3.452,0.837 -4.518,2.259c-0.107,0.142 -0.212,0.282 -0.313,0.417c-0.639,0.852 -0.939,1.911 -0.843,2.972c0.637,7.005 3.115,34.261 3.717,40.892c0.086,0.943 0.5,1.827 1.17,2.497c0,0 0.001,0 0.001,0.001c1.256,1.256 2.961,1.962 4.737,1.962c8.677,0 35.106,0 41.715,0c0.985,0 1.947,-0.291 2.767,-0.838c0,0 0,0 0,0c1.104,-0.736 1.82,-1.927 1.952,-3.247c0.135,-1.352 0.314,-3.141 0.467,-4.676c0.184,-1.839 1.731,-3.239 3.579,-3.239c1.504,0 3.209,0 4.369,0c0.986,0 1.954,-0.275 2.793,-0.795c2.767,-1.781 8.589,-6.471 7.583,-14.205c-1.523,-11.709 -9.337,-13.713 -13.044,-13.996c-1.127,-0.069 -2.037,-0.946 -2.15,-2.069c-0.169,-1.566 -0.385,-3.73 -0.552,-5.402c-0.144,-1.438 -1.354,-2.533 -2.8,-2.533c-9.238,0 -40.955,0 -50.63,0Z" style="fill:#00e9e1;"/><clipPath id="_clip4"><path d="M103.266,89c-1.777,0 -3.452,0.837 -4.518,2.259c-0.107,0.142 -0.212,0.282 -0.313,0.417c-0.639,0.852 -0.939,1.911 -0.843,2.972c0.637,7.005 3.115,34.261 3.717,40.892c0.086,0.943 0.5,1.827 1.17,2.497c0,0 0.001,0 0.001,0.001c1.256,1.256 2.961,1.962 4.737,1.962c8.677,0 35.106,0 41.715,0c0.985,0 1.947,-0.291 2.767,-0.838c0,0 0,0 0,0c1.104,-0.736 1.82,-1.927 1.952,-3.247c0.135,-1.352 0.314,-3.141 0.467,-4.676c0.184,-1.839 1.731,-3.239 3.579,-3.239c1.504,0 3.209,0 4.369,0c0.986,0 1.954,-0.275 2.793,-0.795c2.767,-1.781 8.589,-6.471 7.583,-14.205c-1.523,-11.709 -9.337,-13.713 -13.044,-13.996c-1.127,-0.069 -2.037,-0.946 -2.15,-2.069c-0.169,-1.566 -0.385,-3.73 -0.552,-5.402c-0.144,-1.438 -1.354,-2.533 -2.8,-2.533c-9.238,0 -40.955,0 -50.63,0Z"/></clipPath><g clip-path="url(#_clip4)"><path d="M158.113,105.049c-0.432,-0.029 -0.856,0.122 -1.171,0.417c-0.316,0.295 -0.495,0.708 -0.495,1.14c-0.005,3.272 -0.005,10.733 -0.005,14.355c0,0.576 0.244,1.124 0.671,1.511c0.426,0.386 0.997,0.573 1.57,0.515c1.014,-0.147 2.266,-0.398 3.503,-0.938c2.499,-1.092 4.936,-3.362 5.256,-8.04c0.502,-7.333 -6.13,-8.717 -9.329,-8.96Z" style="fill:#ffe8e8;"/></g><path d="M166.442,146.5c0,-0.828 -0.672,-1.5 -1.5,-1.5l-71,0c-0.828,0 -1.5,0.672 -1.5,1.5l0,3c0,0.828 0.672,1.5 1.5,1.5l71,0c0.828,0 1.5,-0.672 1.5,-1.5l0,-3Z" style="fill:#00e9e1;"/></g></g></svg>