<?xml version="1.0" encoding="UTF-8" standalone="no"?><!DOCTYPE svg PUBLIC "-//W3C//DTD SVG 1.1//EN" "http://www.w3.org/Graphics/SVG/1.1/DTD/svg11.dtd"><svg width="100%" height="100%" viewBox="0 0 111 120" version="1.1" xmlns="http://www.w3.org/2000/svg" xmlns:xlink="http://www.w3.org/1999/xlink" xml:space="preserve" xmlns:serif="http://www.serif.com/" style="fill-rule:evenodd;clip-rule:evenodd;stroke-linejoin:round;stroke-miterlimit:1.41421;"><rect id="Artboard1" x="-122.88" y="-66" width="344.16" height="293.578" style="fill:none;"/><path d="M79.427,22.296c0.149,0.001 0.298,0.005 0.446,0.01c0.297,0.011 0.594,0.031 0.89,0.06c0.869,0.086 1.731,0.248 2.572,0.484c1.185,0.333 2.329,0.813 3.396,1.427c1.017,0.585 1.963,1.291 2.813,2.1c0.489,0.466 0.946,0.965 1.366,1.493c0.42,0.528 0.804,1.085 1.148,1.664c0.339,0.569 0.639,1.16 0.899,1.769c0.266,0.624 0.489,1.266 0.667,1.92c0.206,0.759 0.352,1.535 0.434,2.317c0.079,0.758 0.1,1.521 0.063,2.282c-0.042,0.844 -0.157,1.684 -0.341,2.508c-0.2,0.896 -0.484,1.773 -0.845,2.616c-0.393,0.918 -0.879,1.795 -1.448,2.615c-0.474,0.682 -1.006,1.324 -1.588,1.917c-0.616,0.627 -1.289,1.199 -2.007,1.707c-0.671,0.474 -1.381,0.893 -2.12,1.25c-0.235,0.114 -0.473,0.222 -0.714,0.323c0.039,0.016 0.078,0.033 0.116,0.049c0.086,0.037 0.172,0.075 0.257,0.114c0.186,0.084 0.37,0.172 0.552,0.264c0.551,0.277 1.086,0.589 1.599,0.933c0.504,0.337 0.987,0.706 1.446,1.102c0.474,0.41 0.921,0.85 1.339,1.317c0.671,0.75 1.264,1.569 1.768,2.439c0.477,0.822 0.874,1.69 1.184,2.588c0.383,1.105 0.635,2.255 0.749,3.419c0.103,1.054 0.094,2.119 -0.03,3.171c-0.087,0.737 -0.229,1.467 -0.426,2.183c-0.176,0.639 -0.395,1.266 -0.655,1.875c-0.627,1.471 -1.492,2.84 -2.553,4.036c-0.526,0.592 -1.099,1.142 -1.712,1.642c-0.662,0.539 -1.371,1.02 -2.117,1.437c-0.777,0.435 -1.593,0.799 -2.435,1.088c-0.896,0.307 -1.821,0.529 -2.759,0.66c-1.002,0.141 -2.018,0.179 -3.028,0.114c-0.873,-0.057 -1.741,-0.192 -2.59,-0.403c-0.852,-0.212 -1.686,-0.5 -2.487,-0.86c-0.777,-0.35 -1.525,-0.766 -2.232,-1.243c-0.229,-0.155 -0.454,-0.316 -0.675,-0.483c0.005,0.042 0.01,0.083 0.015,0.125c0.031,0.265 0.055,0.53 0.072,0.795c0.044,0.695 0.04,1.392 -0.013,2.086c-0.045,0.589 -0.125,1.175 -0.24,1.754c-0.115,0.584 -0.267,1.161 -0.452,1.727c-0.305,0.927 -0.702,1.824 -1.184,2.674c-0.491,0.865 -1.069,1.68 -1.723,2.43c-0.7,0.803 -1.487,1.531 -2.342,2.167c-0.897,0.667 -1.87,1.233 -2.894,1.681c-0.666,0.291 -1.352,0.533 -2.053,0.723c-0.669,0.181 -1.351,0.315 -2.038,0.4c-0.578,0.072 -1.159,0.109 -1.741,0.113c-1.033,0.007 -2.066,-0.093 -3.077,-0.301c-0.79,-0.162 -1.567,-0.389 -2.32,-0.678c-0.783,-0.3 -1.54,-0.668 -2.261,-1.097c-0.778,-0.463 -1.513,-0.998 -2.193,-1.595c-0.701,-0.614 -1.344,-1.295 -1.918,-2.03c-0.614,-0.785 -1.149,-1.633 -1.592,-2.525c-0.397,-0.797 -0.72,-1.63 -0.966,-2.485c-0.239,-0.829 -0.404,-1.679 -0.494,-2.537c-0.091,-0.863 -0.105,-1.735 -0.045,-2.601c0.019,-0.276 0.046,-0.551 0.081,-0.826c-0.034,0.025 -0.067,0.051 -0.101,0.076c-0.213,0.159 -0.431,0.312 -0.652,0.46c-0.58,0.385 -1.186,0.73 -1.813,1.031c-0.519,0.249 -1.052,0.468 -1.595,0.655c-0.578,0.198 -1.168,0.361 -1.766,0.486c-0.97,0.203 -1.961,0.307 -2.952,0.312c-1.01,0.004 -2.019,-0.094 -3.009,-0.294c-1.073,-0.217 -2.123,-0.553 -3.123,-0.999c-0.981,-0.438 -1.914,-0.982 -2.777,-1.622c-0.583,-0.432 -1.135,-0.908 -1.648,-1.422c-0.479,-0.479 -0.925,-0.992 -1.334,-1.532c-0.973,-1.288 -1.736,-2.735 -2.246,-4.267c-0.255,-0.765 -0.447,-1.551 -0.573,-2.348c-0.131,-0.828 -0.191,-1.668 -0.179,-2.507c0.011,-0.875 0.101,-1.749 0.267,-2.609c0.182,-0.945 0.455,-1.871 0.816,-2.763c0.362,-0.897 0.812,-1.758 1.342,-2.567c0.503,-0.769 1.079,-1.492 1.717,-2.154c0.643,-0.666 1.348,-1.271 2.103,-1.805c0.671,-0.474 1.381,-0.893 2.12,-1.251c0.235,-0.114 0.473,-0.221 0.714,-0.322c-0.039,-0.017 -0.077,-0.033 -0.116,-0.05c-0.23,-0.099 -0.458,-0.203 -0.682,-0.314c-0.582,-0.286 -1.146,-0.61 -1.686,-0.97c-0.544,-0.361 -1.064,-0.759 -1.555,-1.19c-0.448,-0.392 -0.872,-0.811 -1.27,-1.255c-0.641,-0.717 -1.211,-1.496 -1.701,-2.324c-0.484,-0.818 -0.888,-1.682 -1.207,-2.577c-0.393,-1.102 -0.655,-2.25 -0.779,-3.413c-0.116,-1.082 -0.113,-2.177 0.011,-3.259c0.083,-0.722 0.219,-1.437 0.407,-2.139c0.176,-0.654 0.397,-1.297 0.661,-1.921c0.629,-1.486 1.5,-2.871 2.571,-4.078c0.546,-0.615 1.143,-1.184 1.783,-1.699c0.642,-0.516 1.327,-0.978 2.046,-1.381c0.802,-0.449 1.647,-0.823 2.519,-1.116c0.87,-0.292 1.766,-0.504 2.675,-0.632c0.943,-0.132 1.898,-0.174 2.849,-0.124c0.933,0.05 1.862,0.188 2.769,0.414c0.868,0.215 1.715,0.51 2.53,0.879c0.762,0.346 1.495,0.756 2.189,1.223c0.229,0.155 0.454,0.316 0.675,0.484c-0.005,-0.042 -0.01,-0.084 -0.015,-0.126c-0.011,-0.093 -0.021,-0.186 -0.031,-0.279c-0.018,-0.187 -0.033,-0.375 -0.044,-0.563c-0.039,-0.647 -0.036,-1.297 0.009,-1.945c0.044,-0.635 0.13,-1.268 0.256,-1.893c0.114,-0.568 0.263,-1.13 0.444,-1.681c0.295,-0.9 0.677,-1.77 1.139,-2.596c0.486,-0.868 1.059,-1.687 1.708,-2.441c0.744,-0.864 1.587,-1.642 2.508,-2.314c0.88,-0.641 1.83,-1.186 2.829,-1.619c0.652,-0.284 1.325,-0.519 2.011,-0.705c0.669,-0.182 1.351,-0.315 2.038,-0.401c1.602,-0.198 3.237,-0.136 4.818,0.188c0.776,0.159 1.538,0.381 2.278,0.662c0.798,0.304 1.57,0.677 2.303,1.114c0.752,0.448 1.465,0.963 2.126,1.536c0.727,0.63 1.393,1.33 1.985,2.088c0.614,0.786 1.149,1.633 1.592,2.526c0.397,0.797 0.72,1.629 0.966,2.484c0.235,0.815 0.398,1.649 0.489,2.491c0.098,0.91 0.113,1.829 0.043,2.742c-0.019,0.244 -0.043,0.488 -0.074,0.732c0.034,-0.026 0.067,-0.051 0.101,-0.076c0.15,-0.112 0.303,-0.222 0.457,-0.328c0.339,-0.233 0.687,-0.452 1.044,-0.656c0.559,-0.321 1.139,-0.605 1.735,-0.851c0.527,-0.217 1.066,-0.403 1.615,-0.558c0.859,-0.242 1.74,-0.405 2.629,-0.488c0.298,-0.028 0.596,-0.046 0.896,-0.056c0.149,-0.005 0.298,-0.007 0.447,-0.007c0.045,0 0.089,0 0.134,0Zm-23.709,44.179l-0.076,0c-0.236,0.001 -0.472,0.008 -0.707,0.023c-0.415,0.026 -0.827,0.075 -1.236,0.145c-0.507,0.088 -1.008,0.209 -1.499,0.363c-0.428,0.135 -0.847,0.295 -1.256,0.478c-0.672,0.301 -1.314,0.667 -1.916,1.09c-0.475,0.334 -0.925,0.703 -1.346,1.104c-0.445,0.424 -0.857,0.884 -1.23,1.374c-0.367,0.481 -0.696,0.992 -0.984,1.525c-0.279,0.517 -0.518,1.055 -0.715,1.608c-0.184,0.516 -0.331,1.046 -0.439,1.583c-0.153,0.757 -0.229,1.529 -0.229,2.301c0,0.543 0.038,1.085 0.113,1.622c0.08,0.571 0.203,1.136 0.367,1.688c0.175,0.588 0.397,1.161 0.664,1.714c0.309,0.641 0.677,1.253 1.098,1.826c0.076,0.104 0.154,0.206 0.234,0.307l18.238,0c0.123,-0.155 0.242,-0.315 0.356,-0.477c0.378,-0.533 0.71,-1.099 0.992,-1.688c0.264,-0.553 0.485,-1.128 0.658,-1.716c0.159,-0.542 0.279,-1.095 0.357,-1.654c0.079,-0.562 0.116,-1.129 0.112,-1.697c-0.004,-0.735 -0.078,-1.47 -0.221,-2.191c-0.104,-0.526 -0.245,-1.045 -0.422,-1.551c-0.182,-0.522 -0.402,-1.03 -0.657,-1.52c-0.29,-0.559 -0.626,-1.093 -1.003,-1.597c-0.383,-0.511 -0.807,-0.991 -1.268,-1.433c-0.487,-0.467 -1.013,-0.891 -1.573,-1.267c-0.543,-0.364 -1.117,-0.683 -1.714,-0.951c-0.409,-0.183 -0.828,-0.343 -1.256,-0.478c-0.491,-0.154 -0.992,-0.275 -1.499,-0.363c-0.409,-0.07 -0.821,-0.119 -1.235,-0.145c-0.236,-0.015 -0.472,-0.022 -0.708,-0.023Zm33.402,4.155l0.002,-0.003c0.584,-0.921 1.039,-1.923 1.345,-2.97c0.152,-0.523 0.268,-1.058 0.345,-1.598c0.092,-0.649 0.129,-1.306 0.11,-1.961c-0.019,-0.674 -0.097,-1.346 -0.232,-2.007c-0.145,-0.705 -0.355,-1.397 -0.627,-2.064c-0.263,-0.647 -0.585,-1.27 -0.961,-1.86c-0.386,-0.605 -0.829,-1.175 -1.321,-1.698c-0.395,-0.42 -0.821,-0.81 -1.274,-1.166c-0.748,-0.587 -1.568,-1.082 -2.435,-1.472c-0.463,-0.208 -0.94,-0.386 -1.427,-0.531c-0.466,-0.14 -0.942,-0.249 -1.422,-0.328c-0.394,-0.065 -0.792,-0.11 -1.191,-0.133c-0.221,-0.013 -0.443,-0.02 -0.666,-0.02c-0.023,0 -0.046,0 -0.069,0c-0.105,0 -0.21,0.002 -0.315,0.005c-0.21,0.007 -0.419,0.019 -0.628,0.037c-0.682,0.059 -1.36,0.178 -2.022,0.355c-0.954,0.256 -1.876,0.633 -2.736,1.121c-0.787,0.447 -1.521,0.986 -2.183,1.604c-0.402,0.376 -0.778,0.782 -1.123,1.212c-0.323,0.403 -0.618,0.827 -0.885,1.269c-0.287,0.477 -0.541,0.974 -0.758,1.487c-0.192,0.455 -0.356,0.922 -0.488,1.398c-0.153,0.548 -0.264,1.107 -0.334,1.671c-0.076,0.615 -0.103,1.236 -0.079,1.856c0.026,0.685 0.112,1.368 0.258,2.038c0.148,0.681 0.357,1.348 0.624,1.992c0.276,0.667 0.615,1.309 1.011,1.914c0.381,0.581 0.815,1.129 1.294,1.632c0.398,0.418 0.827,0.805 1.282,1.158c0.752,0.583 1.575,1.074 2.445,1.458c0.703,0.311 1.438,0.551 2.19,0.716c0.815,0.178 1.649,0.268 2.483,0.266c0.71,-0.001 1.419,-0.067 2.117,-0.197c0.73,-0.136 1.448,-0.342 2.139,-0.615c0.661,-0.26 1.298,-0.58 1.901,-0.957c0.219,-0.137 0.434,-0.282 0.644,-0.433l0,-12.782l0.005,0.005c0.242,0.223 0.473,0.458 0.692,0.704c0.432,0.486 0.816,1.014 1.146,1.575c0.357,0.608 0.649,1.254 0.872,1.923c0.207,0.62 0.353,1.261 0.436,1.909c0.068,0.53 0.094,1.066 0.077,1.6c-0.017,0.528 -0.075,1.055 -0.176,1.574c-0.02,0.105 -0.042,0.211 -0.066,0.316Zm-63.94,3.142c0.29,0.212 0.591,0.411 0.9,0.595c0.59,0.351 1.211,0.65 1.854,0.892c0.684,0.258 1.393,0.451 2.113,0.577c0.654,0.113 1.317,0.171 1.98,0.172c0.834,0.002 1.668,-0.088 2.483,-0.266c0.752,-0.165 1.487,-0.405 2.19,-0.716c0.87,-0.384 1.693,-0.875 2.445,-1.457c0.455,-0.354 0.884,-0.741 1.282,-1.159c0.496,-0.52 0.942,-1.087 1.332,-1.691c0.38,-0.587 0.706,-1.209 0.973,-1.855c0.276,-0.665 0.49,-1.356 0.639,-2.06c0.134,-0.637 0.215,-1.285 0.242,-1.935c0.024,-0.596 0.003,-1.194 -0.065,-1.786c-0.069,-0.6 -0.185,-1.194 -0.347,-1.776c-0.132,-0.476 -0.296,-0.943 -0.488,-1.398c-0.217,-0.513 -0.471,-1.01 -0.758,-1.487c-0.267,-0.442 -0.562,-0.866 -0.885,-1.269c-0.345,-0.43 -0.721,-0.836 -1.123,-1.212c-0.662,-0.618 -1.396,-1.157 -2.183,-1.604c-0.86,-0.488 -1.782,-0.865 -2.736,-1.121c-0.662,-0.177 -1.34,-0.296 -2.022,-0.355c-0.209,-0.018 -0.418,-0.03 -0.628,-0.037c-0.105,-0.003 -0.21,-0.005 -0.315,-0.005c-0.023,0 -0.046,0 -0.069,0c-0.223,0 -0.445,0.007 -0.666,0.02c-0.399,0.023 -0.797,0.068 -1.191,0.133c-0.516,0.084 -1.026,0.205 -1.525,0.359c-0.451,0.139 -0.894,0.306 -1.324,0.5c-0.867,0.39 -1.687,0.885 -2.435,1.472c-0.453,0.356 -0.879,0.746 -1.274,1.166c-0.46,0.489 -0.877,1.018 -1.245,1.58c-0.408,0.624 -0.756,1.288 -1.037,1.978c-0.25,0.613 -0.448,1.247 -0.59,1.894c-0.158,0.715 -0.248,1.445 -0.269,2.177c-0.017,0.585 0.01,1.171 0.082,1.751c0.076,0.612 0.201,1.217 0.373,1.808c0.136,0.464 0.3,0.919 0.493,1.362c0.242,0.558 0.528,1.097 0.854,1.611c-0.031,-0.135 -0.058,-0.271 -0.083,-0.407c-0.103,-0.559 -0.158,-1.127 -0.164,-1.695c-0.006,-0.615 0.044,-1.23 0.149,-1.836c0.114,-0.654 0.293,-1.297 0.532,-1.916c0.193,-0.498 0.425,-0.981 0.695,-1.443c0.332,-0.57 0.721,-1.107 1.16,-1.6c0.205,-0.231 0.421,-0.451 0.646,-0.662c0.002,-0.001 0.003,-0.003 0.005,-0.004l0,12.705Zm39.464,-38.543c-0.141,0.107 -0.285,0.213 -0.43,0.315c-0.303,0.215 -0.615,0.418 -0.934,0.609c-0.835,0.501 -1.721,0.92 -2.639,1.246c-1.069,0.381 -2.182,0.637 -3.31,0.762c-1.281,0.143 -2.582,0.119 -3.857,-0.072c-0.863,-0.129 -1.714,-0.335 -2.541,-0.615c-0.995,-0.337 -1.953,-0.781 -2.853,-1.321c-0.306,-0.183 -0.606,-0.378 -0.898,-0.583c-0.157,-0.111 -0.313,-0.225 -0.466,-0.341l-0.003,-0.003c0.006,0.046 0.011,0.091 0.017,0.136c0.005,0.044 0.01,0.089 0.015,0.133c0.018,0.162 0.033,0.325 0.046,0.487c0.025,0.327 0.039,0.654 0.042,0.981c0.011,1.005 -0.081,2.011 -0.275,2.997c-0.213,1.085 -0.549,2.145 -0.999,3.155c-0.518,1.164 -1.186,2.261 -1.982,3.255c-0.536,0.669 -1.131,1.291 -1.775,1.857c-0.755,0.663 -1.579,1.249 -2.453,1.745c-0.35,0.198 -0.707,0.382 -1.071,0.551c-0.175,0.081 -0.351,0.159 -0.529,0.233l-0.003,0.002c0.042,0.017 0.084,0.035 0.126,0.053c0.041,0.018 0.082,0.035 0.122,0.053c0.177,0.078 0.352,0.159 0.526,0.243c0.334,0.163 0.662,0.338 0.984,0.526c0.869,0.507 1.686,1.103 2.434,1.777c0.627,0.564 1.204,1.182 1.725,1.845c0.797,1.014 1.461,2.132 1.971,3.317c0.436,1.013 0.759,2.076 0.958,3.162c0.179,0.973 0.259,1.964 0.239,2.953c-0.007,0.357 -0.027,0.713 -0.059,1.068c-0.016,0.177 -0.036,0.354 -0.059,0.531l0,0.003c0.036,-0.028 0.073,-0.055 0.109,-0.082c0.036,-0.027 0.072,-0.053 0.107,-0.08c0.156,-0.114 0.314,-0.225 0.473,-0.333c0.296,-0.2 0.599,-0.389 0.909,-0.567c0.898,-0.517 1.851,-0.939 2.838,-1.256c0.773,-0.249 1.567,-0.433 2.371,-0.551c1.276,-0.187 2.576,-0.207 3.858,-0.061c1.112,0.128 2.209,0.382 3.263,0.757c0.947,0.337 1.858,0.771 2.716,1.293c0.292,0.177 0.578,0.365 0.857,0.562c0.145,0.103 0.289,0.208 0.43,0.316l0.003,0.002c-0.006,-0.045 -0.011,-0.09 -0.017,-0.136c-0.005,-0.044 -0.01,-0.088 -0.015,-0.132c-0.019,-0.177 -0.036,-0.355 -0.049,-0.532c-0.027,-0.371 -0.041,-0.743 -0.04,-1.115c0.001,-1.006 0.106,-2.012 0.312,-2.997c0.179,-0.855 0.435,-1.694 0.762,-2.504c0.46,-1.138 1.062,-2.218 1.787,-3.209c0.679,-0.929 1.466,-1.778 2.342,-2.524c0.754,-0.641 1.572,-1.206 2.438,-1.684c0.326,-0.179 0.658,-0.346 0.996,-0.501c0.148,-0.068 0.298,-0.133 0.448,-0.196l0.003,-0.001c-0.042,-0.018 -0.084,-0.036 -0.126,-0.054c-0.041,-0.017 -0.082,-0.035 -0.122,-0.053c-0.177,-0.078 -0.352,-0.158 -0.526,-0.243c-0.334,-0.162 -0.662,-0.338 -0.984,-0.525c-0.869,-0.507 -1.686,-1.104 -2.434,-1.777c-0.638,-0.574 -1.226,-1.205 -1.754,-1.882c-0.774,-0.992 -1.422,-2.083 -1.923,-3.237c-0.446,-1.027 -0.775,-2.104 -0.977,-3.205c-0.176,-0.959 -0.256,-1.934 -0.24,-2.909c0.006,-0.371 0.026,-0.743 0.06,-1.113c0.017,-0.177 0.036,-0.354 0.059,-0.53l0,-0.004c-0.001,0.001 -0.002,0.002 -0.003,0.003Zm24.467,8.104c0.36,-0.565 0.669,-1.162 0.926,-1.78c0.258,-0.622 0.462,-1.267 0.609,-1.924c0.152,-0.68 0.243,-1.375 0.272,-2.071c0.025,-0.62 0,-1.241 -0.074,-1.857c-0.07,-0.575 -0.183,-1.146 -0.338,-1.705c-0.149,-0.535 -0.337,-1.059 -0.561,-1.567c-0.201,-0.453 -0.43,-0.894 -0.686,-1.318c-0.291,-0.483 -0.618,-0.946 -0.976,-1.382c-0.327,-0.398 -0.681,-0.774 -1.058,-1.124c-0.697,-0.648 -1.475,-1.208 -2.309,-1.665c-0.806,-0.441 -1.664,-0.786 -2.55,-1.026c-0.65,-0.176 -1.315,-0.296 -1.986,-0.358c-0.232,-0.021 -0.464,-0.036 -0.697,-0.043c-0.105,-0.003 -0.21,-0.005 -0.315,-0.006c-0.023,0 -0.047,0 -0.07,0c-0.199,0.001 -0.397,0.006 -0.596,0.017c-0.434,0.023 -0.866,0.07 -1.295,0.142c-0.492,0.083 -0.979,0.197 -1.456,0.343c-0.463,0.141 -0.917,0.312 -1.359,0.511c-0.372,0.167 -0.736,0.354 -1.09,0.56c-0.468,0.272 -0.918,0.577 -1.344,0.912c-0.453,0.356 -0.879,0.746 -1.274,1.165c-0.5,0.532 -0.949,1.112 -1.34,1.728c-0.374,0.591 -0.694,1.215 -0.956,1.863c-0.27,0.668 -0.477,1.36 -0.62,2.066c-0.133,0.661 -0.209,1.333 -0.227,2.008c-0.015,0.596 0.016,1.194 0.093,1.786c0.078,0.599 0.203,1.193 0.374,1.772c0.313,1.059 0.778,2.07 1.375,2.998c0.31,0.482 0.655,0.942 1.033,1.373c0.392,0.448 0.819,0.865 1.276,1.247c0.496,0.414 1.026,0.786 1.583,1.111c0.543,0.317 1.111,0.589 1.698,0.814c0.661,0.253 1.346,0.447 2.042,0.577c0.697,0.13 1.407,0.196 2.117,0.197c0.81,0.001 1.621,-0.083 2.414,-0.251c0.775,-0.165 1.534,-0.411 2.259,-0.731c0.75,-0.332 1.465,-0.742 2.129,-1.222l0,-12.781l0.012,0.011c0.096,0.089 0.19,0.18 0.283,0.272c0.193,0.193 0.378,0.395 0.555,0.603c0.487,0.576 0.909,1.207 1.257,1.877c0.244,0.468 0.45,0.955 0.617,1.456c0.169,0.507 0.297,1.028 0.382,1.556c0.174,1.078 0.169,2.183 -0.012,3.26c-0.033,0.197 -0.072,0.392 -0.117,0.586Zm-63.931,3.127c0.667,0.487 1.387,0.903 2.141,1.24c0.714,0.318 1.46,0.563 2.224,0.731c0.804,0.176 1.626,0.265 2.448,0.266c0.722,0.001 1.443,-0.065 2.152,-0.197c0.651,-0.122 1.291,-0.298 1.911,-0.528c0.644,-0.238 1.267,-0.533 1.859,-0.881c0.557,-0.327 1.086,-0.7 1.58,-1.116c0.465,-0.391 0.899,-0.819 1.297,-1.278c0.351,-0.406 0.674,-0.837 0.965,-1.288c0.6,-0.926 1.069,-1.937 1.385,-2.994c0.156,-0.523 0.275,-1.057 0.355,-1.597c0.097,-0.649 0.137,-1.306 0.123,-1.961c-0.015,-0.651 -0.085,-1.301 -0.208,-1.941c-0.14,-0.729 -0.351,-1.446 -0.627,-2.135c-0.273,-0.682 -0.61,-1.337 -1.007,-1.955c-0.375,-0.584 -0.803,-1.135 -1.278,-1.643c-0.409,-0.438 -0.853,-0.844 -1.326,-1.213c-0.731,-0.57 -1.529,-1.053 -2.373,-1.435c-0.885,-0.401 -1.821,-0.69 -2.778,-0.857c-0.417,-0.073 -0.838,-0.122 -1.26,-0.148c-0.222,-0.014 -0.444,-0.021 -0.666,-0.023c-0.023,0 -0.047,0 -0.07,0c-0.117,0.001 -0.233,0.002 -0.35,0.006c-0.232,0.007 -0.465,0.022 -0.697,0.043c-0.659,0.061 -1.313,0.178 -1.953,0.349c-0.92,0.247 -1.811,0.606 -2.644,1.069c-0.801,0.445 -1.549,0.985 -2.222,1.607c-0.396,0.365 -0.766,0.759 -1.107,1.176c-0.342,0.418 -0.654,0.861 -0.934,1.322c-0.283,0.466 -0.533,0.951 -0.749,1.451c-0.2,0.465 -0.37,0.944 -0.507,1.432c-0.167,0.592 -0.286,1.198 -0.356,1.809c-0.065,0.57 -0.088,1.144 -0.068,1.717c0.023,0.662 0.103,1.322 0.238,1.971c0.146,0.705 0.358,1.396 0.632,2.061c0.259,0.631 0.573,1.238 0.939,1.813c-0.04,-0.174 -0.076,-0.35 -0.107,-0.526c-0.105,-0.606 -0.155,-1.221 -0.149,-1.836c0.006,-0.569 0.061,-1.136 0.164,-1.695c0.098,-0.538 0.242,-1.067 0.427,-1.582c0.155,-0.428 0.339,-0.845 0.55,-1.248c0.334,-0.638 0.735,-1.241 1.197,-1.794c0.169,-0.202 0.345,-0.397 0.529,-0.585c0.098,-0.1 0.198,-0.197 0.3,-0.293c0.007,-0.006 0.013,-0.013 0.02,-0.019l0,12.705Zm30.538,-34.608l-0.076,0c-0.211,0.001 -0.422,0.007 -0.634,0.019c-0.426,0.024 -0.852,0.072 -1.274,0.143c-0.961,0.163 -1.901,0.448 -2.79,0.847c-0.608,0.273 -1.192,0.598 -1.743,0.971c-0.549,0.371 -1.066,0.789 -1.544,1.247c-0.452,0.434 -0.87,0.905 -1.247,1.405c-0.385,0.513 -0.728,1.057 -1.024,1.625c-0.266,0.511 -0.494,1.042 -0.68,1.587c-0.166,0.485 -0.299,0.982 -0.399,1.484c-0.148,0.746 -0.222,1.506 -0.222,2.266c0,0.543 0.038,1.085 0.113,1.623c0.08,0.57 0.203,1.135 0.367,1.687c0.175,0.588 0.397,1.162 0.664,1.714c0.293,0.609 0.641,1.193 1.036,1.742c0.415,0.575 0.881,1.111 1.392,1.602c0.52,0.499 1.086,0.949 1.689,1.343c0.597,0.391 1.23,0.726 1.889,1c0.735,0.306 1.503,0.536 2.285,0.683c0.712,0.134 1.436,0.201 2.16,0.201c0.736,0 1.472,-0.069 2.195,-0.207c0.771,-0.148 1.526,-0.375 2.25,-0.677c0.648,-0.269 1.271,-0.598 1.86,-0.98c0.613,-0.399 1.189,-0.856 1.718,-1.363c0.536,-0.515 1.023,-1.08 1.452,-1.687c0.378,-0.534 0.71,-1.099 0.992,-1.689c0.275,-0.575 0.502,-1.172 0.678,-1.784c0.149,-0.52 0.262,-1.05 0.337,-1.585c0.079,-0.562 0.116,-1.13 0.112,-1.698c-0.004,-0.735 -0.078,-1.469 -0.221,-2.19c-0.095,-0.48 -0.221,-0.954 -0.376,-1.418c-0.191,-0.568 -0.426,-1.122 -0.703,-1.654c-0.29,-0.558 -0.626,-1.093 -1.003,-1.597c-0.383,-0.511 -0.807,-0.991 -1.268,-1.433c-0.478,-0.458 -0.995,-0.876 -1.544,-1.247c-0.551,-0.373 -1.135,-0.698 -1.743,-0.971c-0.889,-0.399 -1.829,-0.684 -2.79,-0.847c-0.422,-0.071 -0.848,-0.119 -1.274,-0.143c-0.212,-0.012 -0.423,-0.018 -0.634,-0.019Zm-0.071,5.551c-0.396,0.002 -0.791,0.026 -1.184,0.073c-0.404,0.049 -0.805,0.122 -1.2,0.22c-0.26,0.065 -0.517,0.14 -0.771,0.225c-0.999,0.334 -1.943,0.829 -2.788,1.458c-0.831,0.618 -1.567,1.364 -2.173,2.205c-0.378,0.525 -0.705,1.086 -0.975,1.674c-0.149,0.323 -0.28,0.655 -0.394,0.992l-0.007,0.022l19.05,0c-0.015,-0.046 -0.031,-0.092 -0.047,-0.138c-0.094,-0.269 -0.199,-0.534 -0.316,-0.794c-0.244,-0.544 -0.537,-1.066 -0.874,-1.557c-0.398,-0.582 -0.857,-1.121 -1.367,-1.607c-0.386,-0.369 -0.801,-0.706 -1.241,-1.009c-0.743,-0.512 -1.554,-0.922 -2.407,-1.217c-0.666,-0.231 -1.356,-0.389 -2.056,-0.474c-0.243,-0.029 -0.487,-0.049 -0.731,-0.061c-0.13,-0.006 -0.26,-0.01 -0.39,-0.011c-0.043,-0.001 -0.086,-0.001 -0.129,-0.001Z"/><text x="9.06px" y="105.316px" style="font-family:'ArialMT', 'Arial', sans-serif;font-size:12px;">JA<tspan x="22.173px 29.287px 36.628px 39.3px 46.859px 58.185px " y="105.316px 105.316px 105.316px 105.316px 105.316px 105.316px ">VA AWE</tspan>SOME</text><path d="M109.92,118.32l-108.48,0l0,-116.64l108.48,0l0,116.64Zm-105.645,-113.805l0,110.97l102.81,0l0,-110.97l-102.81,0Z" style="fill:#0d0d0d;"/></svg>