<?xml version="1.0" encoding="UTF-8" standalone="no"?><!DOCTYPE svg PUBLIC "-//W3C//DTD SVG 1.1//EN" "http://www.w3.org/Graphics/SVG/1.1/DTD/svg11.dtd"><svg width="100%" height="100%" viewBox="0 0 451 424" version="1.1" xmlns="http://www.w3.org/2000/svg" xmlns:xlink="http://www.w3.org/1999/xlink" xml:space="preserve" xmlns:serif="http://www.serif.com/" style="fill-rule:evenodd;clip-rule:evenodd;stroke-linejoin:round;stroke-miterlimit:1.41421;"><rect id="Artboard1" x="-88" y="-63" width="690" height="571" style="fill:none;"/><g><circle cx="223" cy="212" r="206" style="fill:url(#_Linear1);"/><g><path d="M99.902,196.965l114.046,-75.965l-0.046,152l-114,-76.035Z" style="fill:#fafeff;"/><path d="M213.948,166c0,0 71.083,0.847 82.434,0.982c1.042,0.012 2.076,0.174 3.072,0.482c17.266,5.389 31.278,15.183 40.448,31.536c5.969,14.888 7.603,30.225 5,46c-7.751,28.092 -21.065,50.421 -38,69c11.702,-38.272 8.55,-65.186 -10.34,-80.069c-3.847,-3.037 -8.401,-5.053 -13.236,-5.858c-1.544,-0.26 -3.126,-0.523 -4.334,-0.725c-1.391,-0.231 -2.799,-0.348 -4.21,-0.348c-10.974,0 -60.834,0 -60.834,0l0,-61Z" style="fill:#fafeff;"/></g></g><defs><linearGradient id="_Linear1" x1="0" y1="0" x2="1" y2="0" gradientUnits="userSpaceOnUse" gradientTransform="matrix(246.197,337,-337,246.197,99.9017,42)"><stop offset="0" style="stop-color:#00c9ff;stop-opacity:1"/><stop offset="1" style="stop-color:#007999;stop-opacity:1"/></linearGradient></defs></svg>